<?xml version="1.0" encoding="UTF-8" standalone="no"?>
<svg
   xmlns:dc="http://purl.org/dc/elements/1.1/"
   xmlns:cc="http://creativecommons.org/ns#"
   xmlns:rdf="http://www.w3.org/1999/02/22-rdf-syntax-ns#"
   xmlns:svg="http://www.w3.org/2000/svg"
   xmlns="http://www.w3.org/2000/svg"
   xmlns:sodipodi="http://sodipodi.sourceforge.net/DTD/sodipodi-0.dtd"
   xmlns:inkscape="http://www.inkscape.org/namespaces/inkscape"
   id="Capa_1"
   data-name="Capa 1"
   viewBox="0 0 327.50001 123.44999"
   version="1.1"
   sodipodi:docname="cop-logo.svg"
   width="327.5"
   height="123.45"
   inkscape:version="0.92.5 (2060ec1f9f, 2020-04-08)">
  <metadata
     id="metadata74">
    <rdf:RDF>
      <cc:Work
         rdf:about="">
        <dc:format>image/svg+xml</dc:format>
        <dc:type
           rdf:resource="http://purl.org/dc/dcmitype/StillImage" />
        <dc:title></dc:title>
      </cc:Work>
    </rdf:RDF>
  </metadata>
  <sodipodi:namedview
     pagecolor="#ffffff"
     bordercolor="#666666"
     borderopacity="1"
     objecttolerance="10"
     gridtolerance="10"
     guidetolerance="10"
     inkscape:pageopacity="0"
     inkscape:pageshadow="2"
     inkscape:window-width="640"
     inkscape:window-height="480"
     id="namedview72"
     showgrid="false"
     fit-margin-top="0"
     fit-margin-left="0"
     fit-margin-right="0"
     fit-margin-bottom="0"
     inkscape:zoom="1.1951787"
     inkscape:cx="163.73"
     inkscape:cy="61.719997"
     inkscape:window-x="0"
     inkscape:window-y="27"
     inkscape:window-maximized="0"
     inkscape:current-layer="Capa_1" />
  <defs
     id="defs4">
    <style
       id="style2">.cls-1{fill:#10069f;}</style>
  </defs>
  <g
     id="Grupo_22"
     data-name="Grupo 22"
     transform="translate(-5,-37)">
    <g
       id="Grupo_14"
       data-name="Grupo 14">
      <path
         id="Trazado_1"
         data-name="Trazado 1"
         class="cls-1"
         d="m 20.77,81.13 h 1.36 L 22.2,70.75 h -1.43 v -1.58 h 5.4 a 4.76,4.76 0 0 1 3.14,0.77 3.22,3.22 0 0 1 1.22,2.55 2.92,2.92 0 0 1 -2.69,3.1 v 0 a 3.29,3.29 0 0 1 3.49,3.09 1.34,1.34 0 0 1 0,0.2 c 0,2.3 -1.62,3.8 -4.89,3.8 h -5.67 z m 5.32,0 c 1.58,0 2.85,-0.66 2.85,-2.28 0,-1.62 -1.31,-2.21 -2.73,-2.21 h -1.86 v 4.49 z m -0.27,-6.19 a 2.12,2.12 0 0 0 2.41,-1.79 2.48,2.48 0 0 0 0,-0.38 A 1.83,1.83 0 0 0 27.33,71 3.06,3.06 0 0 0 25.8,70.75 h -1.41 v 4.18 h 1.47 z"
         inkscape:connector-curvature="0"
         style="fill:#10069f" />
      <path
         id="Trazado_2"
         data-name="Trazado 2"
         class="cls-1"
         d="m 33,81.13 h 1.31 V 74.24 H 32.8 v -1.59 h 3.69 v 8.48 h 1.36 v 1.59 H 33 Z M 35.41,67.6 a 1.49,1.49 0 1 1 -1.49,1.49 1.47,1.47 0 0 1 1.46,-1.49 z"
         inkscape:connector-curvature="0"
         style="fill:#10069f" />
      <path
         id="Trazado_3"
         data-name="Trazado 3"
         class="cls-1"
         d="m 39.09,81.13 5.57,-6.37 c 0.18,-0.18 0.37,-0.36 0.56,-0.52 h -3.91 l -0.15,1.49 h -1.82 l 0.15,-3.08 h 8.37 v 1.63 l -5.46,6.17 a 7.49,7.49 0 0 1 -0.7,0.68 H 46 l 0.16,-1.55 h 1.81 l -0.16,3.14 h -8.72 z"
         inkscape:connector-curvature="0"
         style="fill:#10069f" />
      <path
         id="Trazado_4"
         data-name="Trazado 4"
         class="cls-1"
         d="m 49.56,81.13 h 1.22 L 50.86,69.42 H 49.09 V 67.83 H 53 V 77 l 3.56,-2.75 v 0 h -1.48 v -1.6 h 4.72 v 1.59 h -1 l -3.6,3 3.89,3.91 h 1.15 v 1.59 h -4.85 v -1.61 h 1.18 L 53,77.61 v 3.52 h 1.21 v 1.59 h -4.6 z"
         inkscape:connector-curvature="0"
         style="fill:#10069f" />
      <path
         id="Trazado_5"
         data-name="Trazado 5"
         class="cls-1"
         d="m 62.09,73.33 a 8.58,8.58 0 0 1 4,-0.91 c 3,0 3.93,1.47 3.93,3.85 0,1.63 -0.06,3.23 -0.07,4.86 h 1.35 v 1.59 h -3.21 a 12.23,12.23 0 0 1 0.17,-2.1 v 0 a 3.22,3.22 0 0 1 -3.35,2.32 2.86,2.86 0 0 1 -3.19,-2.48 2.68,2.68 0 0 1 0,-0.4 c 0,-2.65 2.69,-3 4.34,-3.08 l 2.07,-0.11 V 76.11 C 68.13,74.87 67.68,74 65.9,74 a 5.4,5.4 0 0 0 -1.82,0.35 v 1.47 h -1.99 z m 3.34,7.92 A 2.52,2.52 0 0 0 68,78.84 v -0.56 c -2.25,0 -4.2,0.12 -4.2,1.61 a 1.42,1.42 0 0 0 1.63,1.36 z"
         inkscape:connector-curvature="0"
         style="fill:#10069f" />
      <path
         id="Trazado_6"
         data-name="Trazado 6"
         class="cls-1"
         d="m 72.77,81.13 h 1.32 V 74.24 H 72.6 v -1.59 h 3.7 v 8.48 h 1.36 v 1.59 H 72.77 Z M 75.21,67.6 a 1.49,1.49 0 1 1 -1.49,1.49 1.48,1.48 0 0 1 1.47,-1.49 z"
         inkscape:connector-curvature="0"
         style="fill:#10069f" />
      <path
         id="Trazado_7"
         data-name="Trazado 7"
         class="cls-1"
         d="m 79,81.13 h 1.22 L 80.29,69.42 H 78.5 v -1.59 h 3.93 L 82.36,77 85.92,74.25 v 0 h -1.44 v -1.6 h 4.73 v 1.59 h -1 l -3.6,3 3.89,3.91 h 1.14 v 1.59 H 84.79 V 81.13 H 86 l -3.61,-3.52 v 3.52 h 1.22 v 1.59 H 79 Z"
         inkscape:connector-curvature="0"
         style="fill:#10069f" />
      <path
         id="Trazado_8"
         data-name="Trazado 8"
         class="cls-1"
         d="m 95.85,72.42 c 3.71,0 4.94,2.84 4.94,5.32 A 4.88,4.88 0 0 1 96.28,83 H 95.6 a 4.68,4.68 0 0 1 -5,-4.32 4.57,4.57 0 0 1 0,-0.74 5.12,5.12 0 0 1 4.75,-5.46 4.51,4.51 0 0 1 0.5,-0.06 z m -0.19,8.71 c 2,0 2.84,-1.65 2.84,-3.62 0,-2.26 -1.18,-3.27 -2.69,-3.27 -2.15,0 -2.94,1.79 -2.94,3.57 0,1.78 0.83,3.32 2.79,3.32 z"
         inkscape:connector-curvature="0"
         style="fill:#10069f" />
    </g>
    <g
       id="Grupo_15"
       data-name="Grupo 15">
      <path
         id="Trazado_9"
         data-name="Trazado 9"
         class="cls-1"
         d="M 5,104.36 H 6.35 L 6.43,94 H 5 v -1.6 h 5.11 a 5.6,5.6 0 0 1 3.24,0.6 3.78,3.78 0 0 1 1.74,3.33 4.24,4.24 0 0 1 -1.9,3.6 4.66,4.66 0 0 1 -2.63,0.64 h -2 v 3.79 h 1.66 V 106 H 5 Z M 10.07,99 a 2.36,2.36 0 0 0 2.69,-2 2.33,2.33 0 0 0 0,-0.59 A 2.47,2.47 0 0 0 12,94.57 3.15,3.15 0 0 0 9.78,94 h -1.2 v 5 h 1.53 z"
         inkscape:connector-curvature="0"
         style="fill:#10069f" />
      <path
         id="Trazado_10"
         data-name="Trazado 10"
         class="cls-1"
         d="m 22.44,98.77 v -1.2 a 3.14,3.14 0 0 0 -1.65,-0.33 c -1,0 -2,0.23 -2,1.22 0,0.77 0.65,1 1.28,1.12 l 2.46,0.48 a 2.57,2.57 0 0 1 2.44,2.68 v 0.09 c 0,2.65 -2.29,3.35 -4.52,3.35 a 10.89,10.89 0 0 1 -3.66,-0.6 v -2.73 h 1.94 v 1.34 a 6.26,6.26 0 0 0 2.15,0.4 c 1,0 2,-0.39 2,-1.41 0,-0.85 -0.64,-1.12 -1.45,-1.28 l -1.61,-0.29 c -1.55,-0.29 -3.23,-0.87 -3.23,-2.79 0,-2.36 2.07,-3.17 4.28,-3.17 a 10.74,10.74 0 0 1 3.5,0.65 v 2.46 z"
         inkscape:connector-curvature="0"
         style="fill:#10069f" />
      <path
         id="Trazado_11"
         data-name="Trazado 11"
         class="cls-1"
         d="m 26.5,104.36 h 1.31 V 97.47 H 26.33 V 95.88 H 30 v 8.48 h 1.35 v 1.58 H 26.5 Z m 2.44,-13.53 a 1.49,1.49 0 1 1 -1.49,1.49 v 0 a 1.48,1.48 0 0 1 1.47,-1.49 z"
         inkscape:connector-curvature="0"
         style="fill:#10069f" />
      <path
         id="Trazado_12"
         data-name="Trazado 12"
         class="cls-1"
         d="m 32.7,104.36 h 1.22 L 34,92.64 h -1.77 v -1.58 h 3.93 l -0.08,9.2 3.57,-2.76 v 0 h -1.44 v -1.62 h 4.72 v 1.59 h -1 l -3.58,3 3.88,3.91 h 1.14 v 1.58 h -4.85 v -1.58 h 1.18 l -3.62,-3.52 v 3.52 h 1.22 v 1.58 h -4.6 z"
         inkscape:connector-curvature="0"
         style="fill:#10069f" />
      <path
         id="Trazado_13"
         data-name="Trazado 13"
         class="cls-1"
         d="m 49.58,95.65 c 3.71,0 4.93,2.85 4.93,5.32 a 4.87,4.87 0 0 1 -4.5,5.21 h -0.68 a 4.68,4.68 0 0 1 -5,-4.32 4.45,4.45 0 0 1 0,-0.73 5.13,5.13 0 0 1 4.75,-5.47 z m -0.2,8.71 c 2,0 2.85,-1.65 2.85,-3.62 0,-2.27 -1.18,-3.28 -2.69,-3.28 -2.15,0 -2.94,1.8 -2.94,3.58 0,1.78 0.83,3.32 2.78,3.32 z"
         inkscape:connector-curvature="0"
         style="fill:#10069f" />
      <path
         id="Trazado_14"
         data-name="Trazado 14"
         class="cls-1"
         d="m 56,104.36 h 1.22 l 0.07,-11.72 h -1.75 v -1.58 h 3.93 l -0.08,13.3 h 1.36 v 1.58 H 56 Z"
         inkscape:connector-curvature="0"
         style="fill:#10069f" />
      <path
         id="Trazado_15"
         data-name="Trazado 15"
         class="cls-1"
         d="m 67.16,95.65 c 3.71,0 4.93,2.85 4.93,5.32 a 4.87,4.87 0 0 1 -4.5,5.21 h -0.68 a 4.68,4.68 0 0 1 -5,-4.31 4.57,4.57 0 0 1 0,-0.74 5.13,5.13 0 0 1 4.75,-5.47 z m -0.2,8.71 c 2,0 2.85,-1.65 2.85,-3.62 0,-2.27 -1.18,-3.28 -2.69,-3.28 -2.15,0 -3,1.8 -3,3.58 0,1.78 0.88,3.32 2.88,3.32 z"
         inkscape:connector-curvature="0"
         style="fill:#10069f" />
      <path
         id="Trazado_16"
         data-name="Trazado 16"
         class="cls-1"
         d="m 83.51,97.47 -1.93,-0.12 a 3,3 0 0 1 0.83,2.19 3.8,3.8 0 0 1 -4,3.59 h -0.9 c -0.54,0 -1.1,0.37 -1.1,0.76 0,0.39 0.5,0.54 1.7,0.71 l 2.63,0.37 c 1.41,0.19 2.65,0.74 2.65,2.42 0,2.73 -2.67,3.66 -5.3,3.66 -2.63,0 -4.72,-1 -4.72,-2.67 A 2.49,2.49 0 0 1 75.72,106 v 0 c -0.76,-0.16 -1.48,-0.58 -1.48,-1.49 0,-0.91 1.07,-1.51 1.92,-1.65 v 0 A 3.21,3.21 0 0 1 73.6,99.57 c 0,-2.19 1.63,-3.83 4.49,-3.83 a 8.36,8.36 0 0 1 1.79,0.23 h 3.71 z M 77,106.24 c -1,0.42 -1.61,0.91 -1.61,1.68 0,1.16 1.24,1.53 2.88,1.53 1.46,0 3,-0.4 3,-1.68 0,-0.72 -0.6,-1 -1.8,-1.15 z m 1.18,-4.71 a 2.09,2.09 0 0 0 2.36,-1.79 1.7,1.7 0 0 0 0,-0.39 c 0,-1.36 -0.93,-2.11 -2.5,-2.11 a 2.17,2.17 0 0 0 -2.42,1.9 2.64,2.64 0 0 0 0,0.28 c 0,1.46 0.95,2.11 2.56,2.11 z"
         inkscape:connector-curvature="0"
         style="fill:#10069f" />
      <path
         id="Trazado_17"
         data-name="Trazado 17"
         class="cls-1"
         d="m 84.6,104.36 h 1.32 v -6.89 h -1.49 v -1.59 h 3.69 v 8.48 h 1.36 v 1.58 H 84.6 Z M 87,90.82 a 1.5,1.5 0 1 1 -1.49,1.5 1.5,1.5 0 0 1 1.49,-1.5 z"
         inkscape:connector-curvature="0"
         style="fill:#10069f" />
      <path
         id="Trazado_18"
         data-name="Trazado 18"
         class="cls-1"
         d="m 91.49,96.56 a 8.64,8.64 0 0 1 4,-0.91 c 3,0 3.93,1.47 3.93,3.85 0,1.63 -0.06,3.23 -0.08,4.86 h 1.36 V 106 h -3.2 a 12.32,12.32 0 0 1 0.18,-2.1 v 0 a 3.24,3.24 0 0 1 -3.35,2.33 2.86,2.86 0 0 1 -3.19,-2.48 1.79,1.79 0 0 1 0,-0.4 c 0,-2.66 2.68,-3 4.33,-3.08 l 2.07,-0.12 V 99.4 c 0,-1.24 -0.44,-2.11 -2.23,-2.11 a 5.21,5.21 0 0 0 -1.82,0.35 v 1.47 h -2 v -2.5 z m 3.35,7.92 a 2.5,2.5 0 0 0 2.59,-2.41 0.38,0.38 0 0 0 0,-0.15 v -0.41 c -2.24,0 -4.2,0.12 -4.2,1.61 a 1.42,1.42 0 0 0 1.61,1.36 z"
         inkscape:connector-curvature="0"
         style="fill:#10069f" />
    </g>
    <g
       id="Grupo_17"
       data-name="Grupo 17">
      <g
         id="Grupo_16"
         data-name="Grupo 16">
        <path
           id="Trazado_19"
           data-name="Trazado 19"
           class="cls-1"
           d="m 19.11,127.59 h 1.35 l 0.08,-10.37 H 19 v -1.59 h 9.52 l 0.08,3.56 h -1.8 l -0.12,-2 h -3.96 v 4.18 h 3.87 v 1.7 h -3.9 v 4.49 h 4.12 l 0.16,-2.2 h 1.82 l -0.16,3.79 h -9.52 v -1.59 z"
           inkscape:connector-curvature="0"
           style="fill:#10069f" />
        <path
           id="Trazado_20"
           data-name="Trazado 20"
           class="cls-1"
           d="m 30.55,127.59 h 1.22 l 0.07,-11.71 h -1.76 v -1.59 H 34 l -0.08,13.3 h 1.36 v 1.59 h -4.73 z"
           inkscape:connector-curvature="0"
           style="fill:#10069f" />
        <path
           id="Trazado_21"
           data-name="Trazado 21"
           class="cls-1"
           d="m 36.65,127.59 h 1.21 l 0.08,-11.71 h -1.76 v -1.59 h 3.93 l -0.11,9.19 3.57,-2.75 v 0 h -1.41 v -1.58 h 4.73 v 1.59 h -1 l -3.6,3 3.89,3.91 h 1.14 v 1.59 h -4.85 v -1.59 h 1.18 L 40,124.07 v 3.52 h 1.22 v 1.59 h -4.6 z"
           inkscape:connector-curvature="0"
           style="fill:#10069f" />
        <path
           id="Trazado_22"
           data-name="Trazado 22"
           class="cls-1"
           d="m 49.17,119.79 a 8.77,8.77 0 0 1 4,-0.91 c 3,0 3.93,1.47 3.93,3.86 0,1.62 -0.06,3.23 -0.08,4.85 h 1.36 v 1.59 h -3.2 a 12.41,12.41 0 0 1 0.18,-2.1 v 0 a 3.23,3.23 0 0 1 -3.36,2.33 2.86,2.86 0 0 1 -3.19,-2.48 c 0,-0.13 0,-0.27 0,-0.4 0,-2.65 2.69,-3 4.34,-3.08 l 2.07,-0.11 v -0.76 c 0,-1.24 -0.45,-2.11 -2.23,-2.11 a 5.4,5.4 0 0 0 -1.82,0.35 v 1.47 h -2 v -2.49 z m 3.35,7.92 a 2.49,2.49 0 0 0 2.59,-2.4 v -0.56 c -2.24,0 -4.2,0.12 -4.2,1.6 0,0.76 0.58,1.36 1.61,1.36 z"
           inkscape:connector-curvature="0"
           style="fill:#10069f" />
        <path
           id="Trazado_23"
           data-name="Trazado 23"
           class="cls-1"
           d="m 60,127.59 h 1.22 v -6.89 h -1.54 v -1.59 h 3.58 a 23.58,23.58 0 0 1 -0.11,2.79 v 0 c 0.39,-1.9 1.49,-3 2.94,-3 a 3.91,3.91 0 0 1 1.22,0.17 L 67.12,121 a 2.77,2.77 0 0 0 -1,-0.15 c -1.92,0 -2.73,1.82 -2.75,3.6 v 3.13 h 1.47 v 1.59 H 60 Z"
           inkscape:connector-curvature="0"
           style="fill:#10069f" />
        <path
           id="Trazado_24"
           data-name="Trazado 24"
           class="cls-1"
           d="m 78.13,120.7 -1.93,-0.12 a 3,3 0 0 1 0.83,2.19 3.8,3.8 0 0 1 -4,3.59 h -0.89 c -0.54,0 -1.11,0.37 -1.11,0.76 0,0.39 0.51,0.54 1.71,0.71 l 2.63,0.37 c 1.41,0.19 2.65,0.74 2.65,2.42 0,2.73 -2.67,3.66 -5.3,3.66 -2.63,0 -4.72,-1 -4.72,-2.67 a 2.48,2.48 0 0 1 2.35,-2.38 v 0 c -0.76,-0.15 -1.48,-0.58 -1.48,-1.49 0,-0.91 1.07,-1.51 1.92,-1.65 v 0 a 3.22,3.22 0 0 1 -2.56,-3.3 c 0,-2.18 1.63,-3.83 4.49,-3.83 a 8.19,8.19 0 0 1 1.78,0.23 h 3.72 z m -6.48,8.77 c -1,0.43 -1.61,0.91 -1.61,1.68 0,1.17 1.24,1.53 2.88,1.53 1.46,0 3,-0.41 3,-1.68 0,-0.72 -0.6,-1 -1.8,-1.14 z m 1.18,-4.7 a 2.09,2.09 0 0 0 2.36,-1.77 1.79,1.79 0 0 0 0,-0.4 c 0,-1.35 -0.93,-2.11 -2.5,-2.11 a 2.18,2.18 0 0 0 -2.42,1.9 2.83,2.83 0 0 0 0,0.29 c 0,1.45 1,2.11 2.56,2.11 z"
           inkscape:connector-curvature="0"
           style="fill:#10069f" />
        <path
           id="Trazado_25"
           data-name="Trazado 25"
           class="cls-1"
           d="m 84.37,118.88 c 3.71,0 4.93,2.85 4.93,5.32 a 4.86,4.86 0 0 1 -4.5,5.21 4,4 0 0 1 -0.69,0 4.67,4.67 0 0 1 -5,-4.31 4.57,4.57 0 0 1 0,-0.74 5.13,5.13 0 0 1 4.75,-5.47 z m -0.2,8.71 c 2,0 2.85,-1.64 2.85,-3.62 0,-2.26 -1.18,-3.27 -2.69,-3.27 -2.15,0 -2.94,1.8 -2.94,3.58 0,1.78 0.83,3.31 2.78,3.31 z"
           inkscape:connector-curvature="0"
           style="fill:#10069f" />
        <path
           id="Trazado_26"
           data-name="Trazado 26"
           class="cls-1"
           d="m 91.49,119.79 a 8.77,8.77 0 0 1 4,-0.91 c 3,0 3.93,1.47 3.93,3.86 0,1.62 -0.06,3.23 -0.08,4.85 h 1.36 v 1.59 h -3.2 a 12.41,12.41 0 0 1 0.18,-2.1 v 0 a 3.23,3.23 0 0 1 -3.35,2.33 2.85,2.85 0 0 1 -3.19,-2.48 1.79,1.79 0 0 1 0,-0.4 c 0,-2.65 2.68,-3 4.33,-3.08 l 2.07,-0.11 v -0.76 c 0,-1.24 -0.44,-2.11 -2.23,-2.11 a 5.44,5.44 0 0 0 -1.82,0.35 v 1.47 h -2 v -2.49 z m 3.35,7.92 a 2.49,2.49 0 0 0 2.59,-2.4 0.43,0.43 0 0 0 0,-0.16 v -0.4 c -2.24,0 -4.2,0.12 -4.2,1.6 a 1.42,1.42 0 0 0 1.61,1.36 z"
           inkscape:connector-curvature="0"
           style="fill:#10069f" />
      </g>
    </g>
    <g
       id="Grupo_18"
       data-name="Grupo 18">
      <path
         id="Trazado_27"
         data-name="Trazado 27"
         class="cls-1"
         d="M 219.89,73.14 V 71 a 8.15,8.15 0 0 0 -2.3,-0.33 c -3.23,0 -4.92,2 -4.92,5.36 0,3.08 1.86,5.24 4.63,5.24 a 15.09,15.09 0 0 0 2.42,-0.19 l 0.08,-2.44 h 1.93 l -0.08,3.7 a 15.08,15.08 0 0 1 -4.22,0.63 c -4.85,0 -7.16,-3 -7.16,-6.87 a 6.82,6.82 0 0 1 6.47,-7.15 6.32,6.32 0 0 1 0.87,0 12,12 0 0 1 4.22,0.74 v 3.46 h -1.94 z"
         inkscape:connector-curvature="0"
         style="fill:#10069f" />
      <path
         id="Trazado_28"
         data-name="Trazado 28"
         class="cls-1"
         d="m 228.64,72.42 c 3.72,0 4.94,2.84 4.94,5.32 a 4.88,4.88 0 0 1 -4.5,5.21 h -0.69 a 4.68,4.68 0 0 1 -5,-4.32 4.45,4.45 0 0 1 0,-0.73 5.13,5.13 0 0 1 4.75,-5.47 4.34,4.34 0 0 1 0.5,-0.01 z m -0.19,8.71 c 2,0 2.85,-1.65 2.85,-3.62 0,-2.26 -1.18,-3.27 -2.69,-3.27 -2.15,0 -2.94,1.79 -2.94,3.57 0,1.78 0.83,3.32 2.78,3.32 z"
         inkscape:connector-curvature="0"
         style="fill:#10069f" />
      <path
         id="Trazado_29"
         data-name="Trazado 29"
         class="cls-1"
         d="m 235.07,81.13 h 1.22 l 0.08,-11.71 h -1.76 v -1.59 h 3.93 l -0.08,13.3 h 1.35 v 1.59 h -4.74 z"
         inkscape:connector-curvature="0"
         style="fill:#10069f" />
      <path
         id="Trazado_30"
         data-name="Trazado 30"
         class="cls-1"
         d="m 249.86,82.25 a 9.71,9.71 0 0 1 -3.54,0.7 4.9,4.9 0 0 1 -5.32,-4.47 4.81,4.81 0 0 1 0,-0.76 c 0,-3 1.69,-5.3 4.94,-5.3 3,0 4.55,2.21 4.55,5.32 V 78 h -7.19 a 3.2,3.2 0 0 0 3.14,3.23 h 0.31 a 7.12,7.12 0 0 0 3.23,-0.78 z m -1.64,-5.69 V 76.37 A 2.3,2.3 0 0 0 246,74 h -0.13 a 2.43,2.43 0 0 0 -2.54,2.33 v 0.22 z"
         inkscape:connector-curvature="0"
         style="fill:#10069f" />
      <path
         id="Trazado_31"
         data-name="Trazado 31"
         class="cls-1"
         d="m 261.86,74.24 -1.93,-0.12 a 3,3 0 0 1 0.83,2.19 3.79,3.79 0 0 1 -4,3.58 h -0.9 c -0.54,0 -1.1,0.37 -1.1,0.75 0,0.38 0.5,0.54 1.7,0.72 l 2.64,0.37 c 1.41,0.19 2.65,0.73 2.65,2.42 0,2.72 -2.67,3.65 -5.3,3.65 -2.63,0 -4.72,-1 -4.72,-2.67 a 2.48,2.48 0 0 1 2.34,-2.38 v 0 c -0.75,-0.15 -1.47,-0.58 -1.47,-1.49 0,-0.91 1.07,-1.51 1.92,-1.64 v 0 A 3.21,3.21 0 0 1 252,76.25 c 0,-2.19 1.63,-3.84 4.49,-3.84 a 8.2,8.2 0 0 1 1.78,0.24 H 262 Z M 255.38,83 c -1,0.43 -1.61,0.91 -1.61,1.68 0,1.17 1.24,1.53 2.89,1.53 1.45,0 3,-0.4 3,-1.68 0,-0.72 -0.6,-1 -1.8,-1.14 z m 1.18,-4.7 a 2.09,2.09 0 0 0 2.36,-1.79 1.79,1.79 0 0 0 0,-0.4 c 0,-1.35 -0.93,-2.11 -2.49,-2.11 a 2.18,2.18 0 0 0 -2.43,1.91 2.46,2.46 0 0 0 0,0.28 c 0,1.45 1,2.11 2.55,2.11 z"
         inkscape:connector-curvature="0"
         style="fill:#10069f" />
      <path
         id="Trazado_32"
         data-name="Trazado 32"
         class="cls-1"
         d="m 263,81.13 h 1.32 v -6.89 h -1.53 v -1.59 h 3.69 v 8.48 h 1.36 v 1.59 H 263 Z m 2.44,-13.53 a 1.49,1.49 0 1 1 -1.49,1.49 1.47,1.47 0 0 1 1.46,-1.49 z"
         inkscape:connector-curvature="0"
         style="fill:#10069f" />
      <path
         id="Trazado_33"
         data-name="Trazado 33"
         class="cls-1"
         d="m 274.2,72.42 c 3.71,0 4.93,2.84 4.93,5.32 a 4.87,4.87 0 0 1 -4.5,5.21 h -0.69 a 4.68,4.68 0 0 1 -5,-4.32 4.45,4.45 0 0 1 0,-0.73 5.13,5.13 0 0 1 4.75,-5.47 4.47,4.47 0 0 1 0.51,-0.01 z m -0.2,8.71 c 2,0 2.85,-1.65 2.85,-3.62 0,-2.26 -1.18,-3.27 -2.69,-3.27 -2.15,0 -2.94,1.79 -2.94,3.57 0,1.78 0.83,3.32 2.78,3.32 z"
         inkscape:connector-curvature="0"
         style="fill:#10069f" />
    </g>
    <g
       id="Grupo_19"
       data-name="Grupo 19">
      <path
         id="Trazado_34"
         data-name="Trazado 34"
         class="cls-1"
         d="m 221,106 h -3.41 a 12.71,12.71 0 0 1 0.19,-2 v 0 a 3.39,3.39 0 0 1 -3.34,2.28 c -2.42,0 -4.2,-1.78 -4.2,-4.78 0,-3.33 2,-5.75 5.4,-5.75 a 8.87,8.87 0 0 1 2,0.23 v -3.23 h -1.84 v -1.69 h 3.93 l -0.07,13.3 H 221 Z m -3.49,-8.17 A 3.85,3.85 0 0 0 215.6,97.4 c -2,0 -3.12,1.75 -3.12,3.72 0,1.97 0.81,3.29 2.44,3.29 1.63,0 2.59,-1.43 2.59,-3.77 z"
         inkscape:connector-curvature="0"
         style="fill:#10069f" />
      <path
         id="Trazado_35"
         data-name="Trazado 35"
         class="cls-1"
         d="m 231.22,105.48 a 9.8,9.8 0 0 1 -3.55,0.7 4.9,4.9 0 0 1 -5.29,-4.46 5,5 0 0 1 0,-0.77 c 0,-3 1.69,-5.3 4.94,-5.3 3,0 4.55,2.21 4.55,5.32 v 0.29 h -7.21 a 3.2,3.2 0 0 0 3.14,3.23 h 0.31 a 7.12,7.12 0 0 0 3.23,-0.78 z m -1.65,-5.69 V 99.6 a 2.3,2.3 0 0 0 -2.25,-2.36 h -0.13 a 2.43,2.43 0 0 0 -2.53,2.33 0.81,0.81 0 0 0 0,0.22 z"
         inkscape:connector-curvature="0"
         style="fill:#10069f" />
      <path
         id="Trazado_36"
         data-name="Trazado 36"
         class="cls-1"
         d="m 238.93,104.36 h 1.37 L 240.38,94 h -1.45 V 92.4 H 244 a 5.6,5.6 0 0 1 3.24,0.6 3.78,3.78 0 0 1 1.76,3.33 4.22,4.22 0 0 1 -1.9,3.6 4.66,4.66 0 0 1 -2.63,0.64 h -2 v 3.79 h 1.66 V 106 h -5.19 v -1.59 z M 244,99 a 2.36,2.36 0 0 0 2.69,-2 2.33,2.33 0 0 0 0,-0.59 2.48,2.48 0 0 0 -0.76,-1.83 3.15,3.15 0 0 0 -2.24,-0.58 h -1.2 v 5 z"
         inkscape:connector-curvature="0"
         style="fill:#10069f" />
      <path
         id="Trazado_37"
         data-name="Trazado 37"
         class="cls-1"
         d="m 256.39,98.77 v -1.2 a 3.14,3.14 0 0 0 -1.65,-0.33 c -1,0 -2,0.23 -2,1.22 0,0.77 0.65,1 1.28,1.12 l 2.46,0.48 a 2.57,2.57 0 0 1 2.44,2.68 v 0.09 c 0,2.65 -2.29,3.35 -4.52,3.35 a 11,11 0 0 1 -3.65,-0.6 v -2.73 h 1.93 v 1.33 a 6.36,6.36 0 0 0 2.15,0.41 c 1,0 2,-0.39 2,-1.41 0,-0.85 -0.63,-1.13 -1.45,-1.28 l -1.61,-0.29 c -1.54,-0.29 -3.23,-0.87 -3.23,-2.79 0,-2.36 2.07,-3.17 4.28,-3.17 a 10.69,10.69 0 0 1 3.5,0.65 v 2.46 h -1.93 z"
         inkscape:connector-curvature="0"
         style="fill:#10069f" />
      <path
         id="Trazado_38"
         data-name="Trazado 38"
         class="cls-1"
         d="m 260.45,104.36 h 1.32 v -6.89 h -1.53 V 95.88 H 264 v 8.48 h 1.35 V 106 h -4.84 v -1.59 z m 2.44,-13.54 a 1.5,1.5 0 1 1 -1.49,1.5 1.49,1.49 0 0 1 1.49,-1.5 z"
         inkscape:connector-curvature="0"
         style="fill:#10069f" />
      <path
         id="Trazado_39"
         data-name="Trazado 39"
         class="cls-1"
         d="m 273,97.53 a 4.65,4.65 0 0 0 -1.28,-0.18 3,3 0 0 0 -3,3 2,2 0 0 0 0,0.43 3.28,3.28 0 0 0 2.93,3.59 3.88,3.88 0 0 0 0.59,0 6.09,6.09 0 0 0 2.58,-0.59 l -0.12,1.88 a 7.63,7.63 0 0 1 -2.75,0.52 4.89,4.89 0 0 1 -5.38,-4.36 4.72,4.72 0 0 1 0,-0.84 5,5 0 0 1 4.64,-5.33 4.07,4.07 0 0 1 0.78,0 6.74,6.74 0 0 1 2.87,0.52 V 99 H 273 Z"
         inkscape:connector-curvature="0"
         style="fill:#10069f" />
      <path
         id="Trazado_40"
         data-name="Trazado 40"
         class="cls-1"
         d="m 281.38,95.65 c 3.72,0 4.94,2.85 4.94,5.32 a 4.88,4.88 0 0 1 -4.51,5.21 h -0.68 a 4.69,4.69 0 0 1 -5,-4.31 4.56,4.56 0 0 1 0,-0.74 5.12,5.12 0 0 1 4.74,-5.47 z m -0.19,8.71 c 2,0 2.84,-1.65 2.84,-3.62 0,-2.26 -1.18,-3.27 -2.69,-3.27 -2.15,0 -2.94,1.8 -2.94,3.58 0,1.78 0.83,3.31 2.79,3.31 z"
         inkscape:connector-curvature="0"
         style="fill:#10069f" />
      <path
         id="Trazado_41"
         data-name="Trazado 41"
         class="cls-1"
         d="M 287.81,104.36 H 289 l 0.07,-11.72 h -1.76 v -1.58 h 3.93 l -0.07,13.3 h 1.35 V 106 h -4.74 v -1.59 z"
         inkscape:connector-curvature="0"
         style="fill:#10069f" />
      <path
         id="Trazado_42"
         data-name="Trazado 42"
         class="cls-1"
         d="m 299,95.65 c 3.71,0 4.93,2.85 4.93,5.32 a 4.87,4.87 0 0 1 -4.5,5.21 h -0.68 a 4.68,4.68 0 0 1 -5,-4.31 4.57,4.57 0 0 1 0,-0.74 5.13,5.13 0 0 1 4.75,-5.47 z m -0.19,8.71 c 2,0 2.84,-1.65 2.84,-3.62 0,-2.26 -1.18,-3.27 -2.69,-3.27 -2.15,0 -2.94,1.8 -2.94,3.58 0,1.78 0.83,3.31 2.79,3.31 z"
         inkscape:connector-curvature="0"
         style="fill:#10069f" />
      <path
         id="Trazado_43"
         data-name="Trazado 43"
         class="cls-1"
         d="m 315.32,97.47 -1.94,-0.12 a 3.07,3.07 0 0 1 0.84,2.19 3.81,3.81 0 0 1 -4,3.59 h -0.89 c -0.54,0 -1.11,0.37 -1.11,0.76 0,0.39 0.51,0.54 1.71,0.71 l 2.63,0.37 c 1.41,0.19 2.65,0.74 2.65,2.42 0,2.73 -2.67,3.66 -5.3,3.66 -2.63,0 -4.72,-1 -4.72,-2.67 a 2.49,2.49 0 0 1 2.35,-2.39 v 0 c -0.76,-0.16 -1.48,-0.58 -1.48,-1.49 0,-0.91 1.07,-1.51 1.92,-1.65 v 0 a 3.2,3.2 0 0 1 -2.55,-3.29 c 0,-2.19 1.62,-3.83 4.49,-3.83 a 8.27,8.27 0 0 1 1.78,0.23 h 3.71 z m -6.49,8.77 c -1,0.42 -1.6,0.91 -1.6,1.68 0,1.16 1.24,1.53 2.88,1.53 1.45,0 3,-0.4 3,-1.68 0,-0.72 -0.6,-1 -1.8,-1.15 z m 1.18,-4.71 a 2.1,2.1 0 0 0 2.37,-1.78 2.71,2.71 0 0 0 0,-0.4 c 0,-1.36 -0.93,-2.11 -2.49,-2.11 a 2.18,2.18 0 0 0 -2.43,1.9 2.62,2.62 0 0 0 0,0.28 c 0,1.46 1,2.11 2.55,2.11 z"
         inkscape:connector-curvature="0"
         style="fill:#10069f" />
      <path
         id="Trazado_44"
         data-name="Trazado 44"
         class="cls-1"
         d="m 316.4,104.36 h 1.32 v -6.89 h -1.53 v -1.59 h 3.7 v 8.48 h 1.35 V 106 h -4.84 v -1.59 z m 0.51,-10.57 3.91,-3.25 1.18,1.08 -3.85,3.1 z"
         inkscape:connector-curvature="0"
         style="fill:#10069f" />
      <path
         id="Trazado_45"
         data-name="Trazado 45"
         class="cls-1"
         d="m 323.29,96.56 a 8.64,8.64 0 0 1 4,-0.91 c 3,0 3.93,1.47 3.93,3.85 0,1.63 -0.06,3.23 -0.07,4.86 h 1.35 V 106 h -3.2 a 12.32,12.32 0 0 1 0.18,-2.1 h -0.05 a 3.22,3.22 0 0 1 -3.35,2.32 2.86,2.86 0 0 1 -3.19,-2.48 c 0,-0.13 0,-0.27 0,-0.4 0,-2.65 2.69,-3 4.34,-3.08 l 2.07,-0.11 v -0.76 c 0,-1.24 -0.45,-2.11 -2.23,-2.11 a 5.4,5.4 0 0 0 -1.82,0.35 v 1.47 h -1.95 v -2.54 z m 3.35,7.92 a 2.5,2.5 0 0 0 2.59,-2.41 0.76,0.76 0 0 0 0,-0.15 v -0.41 c -2.25,0 -4.2,0.12 -4.2,1.61 a 1.41,1.41 0 0 0 1.61,1.36 z"
         inkscape:connector-curvature="0"
         style="fill:#10069f" />
    </g>
    <g
       id="Grupo_21"
       data-name="Grupo 21">
      <g
         id="Grupo_20"
         data-name="Grupo 20">
        <path
           id="Trazado_46"
           data-name="Trazado 46"
           class="cls-1"
           d="m 221,129.18 h -3.41 a 12.81,12.81 0 0 1 0.19,-2.05 v 0 a 3.37,3.37 0 0 1 -3.34,2.28 c -2.42,0 -4.2,-1.78 -4.2,-4.78 0,-3.33 2,-5.75 5.4,-5.75 a 9.49,9.49 0 0 1 2,0.23 v -3.23 h -1.84 v -1.59 h 3.93 l -0.07,13.3 H 221 Z M 217.49,121 a 3.74,3.74 0 0 0 -1.91,-0.42 c -2,0 -3.12,1.74 -3.12,3.71 0,1.97 0.81,3.29 2.44,3.29 1.63,0 2.59,-1.43 2.59,-3.77 z"
           inkscape:connector-curvature="0"
           style="fill:#10069f" />
        <path
           id="Trazado_47"
           data-name="Trazado 47"
           class="cls-1"
           d="m 231.22,128.71 a 9.6,9.6 0 0 1 -3.55,0.7 4.9,4.9 0 0 1 -5.29,-4.46 4.84,4.84 0 0 1 0,-0.76 c 0,-3 1.69,-5.31 4.94,-5.31 3,0 4.55,2.21 4.55,5.33 v 0.29 h -7.21 a 3.18,3.18 0 0 0 3.14,3.22 h 0.31 a 7.24,7.24 0 0 0 3.23,-0.77 z M 229.57,123 v -0.19 a 2.3,2.3 0 0 0 -2.25,-2.36 h -0.13 a 2.42,2.42 0 0 0 -2.53,2.33 0.81,0.81 0 0 0 0,0.22 z"
           inkscape:connector-curvature="0"
           style="fill:#10069f" />
        <path
           id="Trazado_48"
           data-name="Trazado 48"
           class="cls-1"
           d="m 238.93,127.59 h 1.35 l 0.08,-10.37 h -1.43 v -1.59 h 5.4 a 4.81,4.81 0 0 1 3.13,0.77 3.22,3.22 0 0 1 1.22,2.56 2.92,2.92 0 0 1 -2.69,3.09 v 0 a 3.31,3.31 0 0 1 3.5,3.09 v 0.2 c 0,2.31 -1.62,3.8 -4.89,3.8 h -5.67 z m 5.32,0 c 1.57,0 2.84,-0.65 2.84,-2.28 0,-1.63 -1.31,-2.21 -2.72,-2.21 h -1.86 v 4.49 z M 244,121.4 a 2.12,2.12 0 0 0 2.4,-1.8 c 0,-0.12 0,-0.24 0,-0.37 a 1.85,1.85 0 0 0 -0.91,-1.76 3,3 0 0 0 -1.53,-0.26 h -1.41 v 4.19 z"
           inkscape:connector-curvature="0"
           style="fill:#10069f" />
        <path
           id="Trazado_49"
           data-name="Trazado 49"
           class="cls-1"
           d="m 251.12,127.59 h 1.32 V 120.7 H 251 v -1.59 h 3.7 v 8.48 h 1.3 v 1.59 h -4.84 v -1.59 z m 2.44,-13.53 a 1.49,1.49 0 1 1 -1.49,1.49 1.49,1.49 0 0 1 1.49,-1.49 z"
           inkscape:connector-curvature="0"
           style="fill:#10069f" />
        <path
           id="Trazado_50"
           data-name="Trazado 50"
           class="cls-1"
           d="m 257.24,127.59 5.57,-6.37 a 7,7 0 0 1 0.57,-0.52 h -3.91 l -0.16,1.49 h -1.82 l 0.16,-3.08 H 266 v 1.63 l -5.46,6.18 a 7.39,7.39 0 0 1 -0.7,0.67 h 4.26 l 0.15,-1.55 h 1.82 l -0.15,3.14 h -8.69 v -1.59 z"
           inkscape:connector-curvature="0"
           style="fill:#10069f" />
        <path
           id="Trazado_51"
           data-name="Trazado 51"
           class="cls-1"
           d="m 267.71,127.59 h 1.22 l 0.08,-11.71 h -1.76 v -1.59 h 3.93 l -0.08,9.2 3.56,-2.75 v 0 h -1.43 v -1.59 H 278 v 1.59 h -1 l -3.6,3 3.89,3.91 h 1.14 v 1.59 h -4.84 v -1.59 h 1.18 l -3.62,-3.52 v 3.52 h 1.22 v 1.59 h -4.67 v -1.59 z"
           inkscape:connector-curvature="0"
           style="fill:#10069f" />
        <path
           id="Trazado_52"
           data-name="Trazado 52"
           class="cls-1"
           d="m 280.24,119.79 a 8.74,8.74 0 0 1 4,-0.91 c 3,0 3.93,1.47 3.93,3.86 0,1.62 -0.06,3.23 -0.08,4.85 h 1.35 v 1.59 h -3.19 a 13.52,13.52 0 0 1 0.17,-2.1 v 0 a 3.24,3.24 0 0 1 -3.35,2.33 2.87,2.87 0 0 1 -3.19,-2.49 c 0,-0.13 0,-0.26 0,-0.4 0,-2.65 2.69,-3 4.34,-3.07 l 2.07,-0.12 v -0.75 c 0,-1.24 -0.45,-2.11 -2.23,-2.11 a 5.15,5.15 0 0 0 -1.82,0.34 v 1.47 h -1.93 v -2.48 z m 3.35,7.92 a 2.49,2.49 0 0 0 2.59,-2.4 v -0.56 c -2.24,0 -4.19,0.12 -4.19,1.6 0.01,0.76 0.57,1.36 1.6,1.36 z"
           inkscape:connector-curvature="0"
           style="fill:#10069f" />
        <path
           id="Trazado_53"
           data-name="Trazado 53"
           class="cls-1"
           d="m 290.93,127.59 h 1.31 v -6.89 h -1.53 v -1.59 h 3.7 v 8.48 h 1.34 v 1.59 h -4.84 v -1.59 z m 2.43,-13.53 a 1.49,1.49 0 1 1 -1.49,1.49 1.49,1.49 0 0 1 1.49,-1.49 z"
           inkscape:connector-curvature="0"
           style="fill:#10069f" />
        <path
           id="Trazado_54"
           data-name="Trazado 54"
           class="cls-1"
           d="m 297.82,119.79 a 8.73,8.73 0 0 1 4,-0.91 c 3,0 3.93,1.47 3.93,3.86 0,1.62 -0.05,3.23 -0.07,4.85 H 307 v 1.59 h -3.19 a 13.52,13.52 0 0 1 0.17,-2.1 v 0 a 3.24,3.24 0 0 1 -3.35,2.33 2.87,2.87 0 0 1 -3.19,-2.49 c 0,-0.13 0,-0.26 0,-0.4 0,-2.65 2.69,-3 4.34,-3.07 l 2.07,-0.12 v -0.75 c 0,-1.24 -0.45,-2.11 -2.23,-2.11 a 5.15,5.15 0 0 0 -1.82,0.34 v 1.47 h -1.93 v -2.48 z m 3.35,7.92 a 2.51,2.51 0 0 0 2.59,-2.4 v -0.56 c -2.25,0 -4.19,0.12 -4.19,1.6 0,0.76 0.57,1.36 1.6,1.36 z"
           inkscape:connector-curvature="0"
           style="fill:#10069f" />
      </g>
    </g>
    <path
       id="Trazado_55"
       data-name="Trazado 55"
       class="cls-1"
       d="m 93.85,37 a 61.73,61.73 0 0 1 0,123.45 v 0 c 34.09,0 34.09,-123.45 0,-123.45"
       inkscape:connector-curvature="0"
       style="fill:#10069f" />
    <path
       id="Trazado_56"
       data-name="Trazado 56"
       class="cls-1"
       d="m 217.29,37 a 61.73,61.73 0 0 0 0,123.45 C 183.2,160.45 183.2,37 217.29,37"
       inkscape:connector-curvature="0"
       style="fill:#10069f" />
  </g>
</svg>
